<?xml version="1.0" standalone="no"?>
<!DOCTYPE svg PUBLIC "-//W3C//DTD SVG 20010904//EN"
 "http://www.w3.org/TR/2001/REC-SVG-20010904/DTD/svg10.dtd">
<svg version="1.0" xmlns="http://www.w3.org/2000/svg"
 width="250.000000pt" height="250.000000pt" viewBox="0 0 250.000000 250.000000"
 preserveAspectRatio="xMidYMid meet">

<g transform="translate(0.000000,250.000000) scale(0.100000,-0.100000)"
fill="#000000" stroke="none">
<path d="M0 1250 l0 -1250 1250 0 1250 0 0 1250 0 1250 -1250 0 -1250 0 0
-1250z m1198 203 l52 -107 0 81 c0 58 -4 84 -14 93 -25 20 -7 40 35 40 32 0
39 -4 39 -19 0 -11 -4 -23 -10 -26 -6 -4 -10 -57 -10 -126 l0 -119 -33 0 c-31
0 -34 4 -84 103 l-52 102 0 -77 c-1 -42 4 -80 9 -83 6 -3 10 -15 10 -26 0 -15
-7 -19 -39 -19 -43 0 -65 26 -36 42 22 13 22 184 -1 209 -23 25 -9 39 40 39
l42 0 52 -107z m432 52 c0 -21 5 -25 30 -25 20 0 30 -5 30 -15 0 -10 -10 -15
-30 -15 l-31 0 3 -67 c3 -65 4 -68 28 -68 33 0 39 -30 8 -39 -77 -20 -98 1
-98 100 0 43 -4 74 -10 74 -5 0 -10 7 -10 15 0 8 5 15 10 15 6 0 15 11 20 25
6 15 17 25 30 25 15 0 20 -7 20 -25z m-1070 -35 c24 -13 37 -75 20 -95 -8 -10
-30 -15 -61 -15 -37 0 -49 -4 -49 -15 0 -20 37 -34 78 -28 24 4 32 2 32 -11 0
-42 -106 -50 -145 -11 -21 20 -25 34 -25 80 0 46 4 60 25 80 26 27 89 34 125
15z m226 -5 c4 -9 -16 -42 -50 -85 l-57 -70 30 0 c17 0 34 7 39 15 13 25 42 7
42 -26 l0 -29 -90 0 c-110 0 -113 8 -40 101 45 58 47 64 28 67 -11 2 -24 -2
-28 -8 -13 -21 -45 -7 -48 23 l-3 27 86 0 c67 0 87 -3 91 -15z m111 -12 c-2
-16 3 -50 12 -76 l17 -49 17 54 c10 32 13 54 7 56 -6 2 -10 12 -10 23 0 16 7
19 50 19 42 0 50 -3 50 -19 0 -10 -6 -21 -14 -24 -7 -3 -33 -52 -57 -109 -45
-106 -75 -148 -107 -148 -28 0 -55 24 -50 46 4 24 48 33 48 10 0 -24 15 -19
27 7 9 19 5 38 -22 102 -17 43 -39 84 -49 90 -9 7 -16 20 -16 29 0 13 10 16
51 16 51 0 51 0 46 -27z m612 1 c15 -19 21 -41 21 -76 0 -41 -5 -54 -29 -79
-24 -24 -38 -29 -75 -29 -71 0 -106 47 -93 127 10 58 41 83 103 83 45 0 56 -4
73 -26z m366 2 c9 -14 15 -39 13 -58 -3 -33 -3 -33 -60 -36 -32 -2 -58 -6 -58
-10 1 -29 46 -47 83 -33 21 8 26 7 30 -10 6 -24 -19 -39 -67 -39 -73 0 -106
34 -106 111 0 59 42 99 104 99 37 0 48 -4 61 -24z m195 -1 c0 -32 -28 -45 -46
-21 -14 20 -49 18 -49 -3 0 -8 18 -20 39 -27 54 -19 66 -32 66 -70 0 -47 -32
-66 -102 -62 -50 3 -53 5 -56 31 -3 21 1 27 15 27 11 0 24 -5 30 -11 15 -15
58 -7 58 10 0 8 -15 19 -35 24 -46 11 -70 34 -70 65 0 44 26 62 92 62 55 0 58
-1 58 -25z"/>
<path d="M476 1424 c-9 -24 -9 -24 30 -24 29 0 35 3 30 16 -3 9 -6 18 -6 20 0
12 -49 2 -54 -12z"/>
<path d="M1400 1421 c-22 -43 -5 -111 28 -111 29 0 42 21 42 65 0 23 -5 46
-12 53 -18 18 -46 14 -58 -7z"/>
<path d="M1782 1428 c-20 -20 -14 -28 24 -28 28 0 35 3 32 18 -4 21 -39 27
-56 10z"/>
</g>
</svg>
